<mxfile host="Electron" modified="2024-05-21T08:14:43.384Z" agent="Mozilla/5.0 (Windows NT 10.0; Win64; x64) AppleWebKit/537.36 (KHTML, like Gecko) draw.io/23.1.5 Chrome/120.0.6099.109 Electron/28.1.0 Safari/537.36" etag="gNA6avsWiWf60CKtStWb" version="23.1.5" type="device">
  <diagram name="Strona-1" id="ckxG_nOQ_maH-sQQJCny">
    <mxGraphModel dx="1103" dy="736" grid="1" gridSize="10" guides="1" tooltips="1" connect="1" arrows="1" fold="1" page="1" pageScale="1" pageWidth="700" pageHeight="300" math="0" shadow="0">
      <root>
        <mxCell id="0" />
        <mxCell id="1" parent="0" />
        <mxCell id="4nAtlYZP7ZLarm_Cd7tP-1" value="&amp;nbsp;Wersja 1B" style="rounded=0;whiteSpace=wrap;html=1;" vertex="1" parent="1">
          <mxGeometry x="140" y="70" width="50" height="30" as="geometry" />
        </mxCell>
        <mxCell id="4nAtlYZP7ZLarm_Cd7tP-2" value="AIFS" style="rounded=0;whiteSpace=wrap;html=1;" vertex="1" parent="1">
          <mxGeometry x="40" y="70" width="100" height="30" as="geometry" />
        </mxCell>
        <mxCell id="4nAtlYZP7ZLarm_Cd7tP-3" value="Nazwa dysku 24B (32 znaki Base64)" style="rounded=0;whiteSpace=wrap;html=1;" vertex="1" parent="1">
          <mxGeometry x="190" y="70" width="500" height="30" as="geometry" />
        </mxCell>
        <mxCell id="4nAtlYZP7ZLarm_Cd7tP-4" value="F" style="rounded=0;whiteSpace=wrap;html=1;" vertex="1" parent="1">
          <mxGeometry x="40" y="100" width="30" height="30" as="geometry" />
        </mxCell>
        <mxCell id="4nAtlYZP7ZLarm_Cd7tP-5" value="Nazwa pliku 12B (16 znaków B64)" style="rounded=0;whiteSpace=wrap;html=1;" vertex="1" parent="1">
          <mxGeometry x="70" y="100" width="210" height="30" as="geometry" />
        </mxCell>
        <mxCell id="4nAtlYZP7ZLarm_Cd7tP-7" value="Adres sektora 2B (16 bit)" style="rounded=0;whiteSpace=wrap;html=1;" vertex="1" parent="1">
          <mxGeometry x="280" y="100" width="140" height="30" as="geometry" />
        </mxCell>
        <mxCell id="4nAtlYZP7ZLarm_Cd7tP-8" value="Długość pliku w sektorach 2B (16 bit)" style="rounded=0;whiteSpace=wrap;html=1;" vertex="1" parent="1">
          <mxGeometry x="420" y="100" width="220" height="30" as="geometry" />
        </mxCell>
        <mxCell id="4nAtlYZP7ZLarm_Cd7tP-9" value="..." style="text;html=1;align=center;verticalAlign=middle;whiteSpace=wrap;rounded=0;" vertex="1" parent="1">
          <mxGeometry x="320" y="130" width="60" height="30" as="geometry" />
        </mxCell>
        <mxCell id="4nAtlYZP7ZLarm_Cd7tP-18" value="F" style="rounded=0;whiteSpace=wrap;html=1;" vertex="1" parent="1">
          <mxGeometry x="40" y="160" width="30" height="30" as="geometry" />
        </mxCell>
        <mxCell id="4nAtlYZP7ZLarm_Cd7tP-19" value="Nazwa pliku 12B (16 znaków B64)" style="rounded=0;whiteSpace=wrap;html=1;" vertex="1" parent="1">
          <mxGeometry x="70" y="160" width="210" height="30" as="geometry" />
        </mxCell>
        <mxCell id="4nAtlYZP7ZLarm_Cd7tP-20" value="Adres sektora 2B (16 bit)" style="rounded=0;whiteSpace=wrap;html=1;" vertex="1" parent="1">
          <mxGeometry x="280" y="160" width="140" height="30" as="geometry" />
        </mxCell>
        <mxCell id="4nAtlYZP7ZLarm_Cd7tP-21" value="Długość pliku w sektorach 2B (16 bit)" style="rounded=0;whiteSpace=wrap;html=1;" vertex="1" parent="1">
          <mxGeometry x="420" y="160" width="220" height="30" as="geometry" />
        </mxCell>
        <mxCell id="4nAtlYZP7ZLarm_Cd7tP-23" value="E" style="rounded=0;whiteSpace=wrap;html=1;" vertex="1" parent="1">
          <mxGeometry x="40" y="190" width="30" height="30" as="geometry" />
        </mxCell>
        <mxCell id="4nAtlYZP7ZLarm_Cd7tP-24" value="..." style="text;html=1;align=center;verticalAlign=middle;whiteSpace=wrap;rounded=0;" vertex="1" parent="1">
          <mxGeometry x="320" y="230" width="60" height="30" as="geometry" />
        </mxCell>
        <mxCell id="4nAtlYZP7ZLarm_Cd7tP-26" value="Suma kontrola 1B" style="rounded=0;whiteSpace=wrap;html=1;" vertex="1" parent="1">
          <mxGeometry x="610" y="260" width="80" height="30" as="geometry" />
        </mxCell>
        <mxCell id="4nAtlYZP7ZLarm_Cd7tP-27" value="xxx" style="rounded=0;whiteSpace=wrap;html=1;" vertex="1" parent="1">
          <mxGeometry x="40" y="260" width="570" height="30" as="geometry" />
        </mxCell>
        <mxCell id="4nAtlYZP7ZLarm_Cd7tP-29" value="0x0" style="text;html=1;align=center;verticalAlign=middle;whiteSpace=wrap;rounded=0;" vertex="1" parent="1">
          <mxGeometry x="10" y="70" width="30" height="30" as="geometry" />
        </mxCell>
        <mxCell id="4nAtlYZP7ZLarm_Cd7tP-30" value="0x1d" style="text;html=1;align=center;verticalAlign=middle;whiteSpace=wrap;rounded=0;" vertex="1" parent="1">
          <mxGeometry x="10" y="100" width="30" height="30" as="geometry" />
        </mxCell>
        <mxCell id="4nAtlYZP7ZLarm_Cd7tP-32" value="0x1e2" style="text;html=1;align=center;verticalAlign=middle;whiteSpace=wrap;rounded=0;" vertex="1" parent="1">
          <mxGeometry x="10" y="260" width="30" height="30" as="geometry" />
        </mxCell>
        <mxCell id="4nAtlYZP7ZLarm_Cd7tP-34" value="" style="endArrow=none;html=1;rounded=0;exitX=1;exitY=0;exitDx=0;exitDy=0;" edge="1" parent="1" source="4nAtlYZP7ZLarm_Cd7tP-1">
          <mxGeometry width="50" height="50" relative="1" as="geometry">
            <mxPoint x="470" y="210" as="sourcePoint" />
            <mxPoint x="270" y="50" as="targetPoint" />
          </mxGeometry>
        </mxCell>
        <mxCell id="4nAtlYZP7ZLarm_Cd7tP-35" value="" style="endArrow=none;html=1;rounded=0;exitX=1;exitY=0;exitDx=0;exitDy=0;" edge="1" parent="1" source="4nAtlYZP7ZLarm_Cd7tP-2">
          <mxGeometry width="50" height="50" relative="1" as="geometry">
            <mxPoint x="200" y="80" as="sourcePoint" />
            <mxPoint x="100" y="50" as="targetPoint" />
          </mxGeometry>
        </mxCell>
        <mxCell id="4nAtlYZP7ZLarm_Cd7tP-36" value="[7:4] Wersja" style="rounded=0;whiteSpace=wrap;html=1;" vertex="1" parent="1">
          <mxGeometry x="70" y="20" width="110" height="30" as="geometry" />
        </mxCell>
        <mxCell id="4nAtlYZP7ZLarm_Cd7tP-38" value="[3:0] Wydanie" style="rounded=0;whiteSpace=wrap;html=1;" vertex="1" parent="1">
          <mxGeometry x="180" y="20" width="110" height="30" as="geometry" />
        </mxCell>
      </root>
    </mxGraphModel>
  </diagram>
</mxfile>
